<svg width="31" height="25" viewBox="0 0 31 25" fill="none" xmlns="http://www.w3.org/2000/svg">
<path d="M23.3732 13.6C21.5598 13.44 20.0932 12.7733 18.9732 11.6C17.8532 10.4267 17.2932 8.93333 17.2932 7.12C17.2932 5.14667 17.9332 3.49333 19.2132 2.16C20.4398 0.880001 21.9865 0.240001 23.8532 0.240001C25.9865 0.240001 27.6932 0.986668 28.9732 2.48C30.2532 4.02667 30.8932 6.24 30.8932 9.12C30.8932 14.72 28.9198 19.5733 24.9732 23.68C24.2265 24.4267 23.3732 24.8 22.4132 24.8C21.5065 24.8 20.7065 24.48 20.0132 23.84C19.3198 23.2533 18.9732 22.5333 18.9732 21.68C18.9732 20.9333 19.2665 20.24 19.8532 19.6C21.6132 17.7333 22.7865 15.7333 23.3732 13.6ZM6.81317 13.6C4.99983 13.44 3.53317 12.7733 2.41317 11.6C1.29317 10.4267 0.733166 8.93333 0.733166 7.12C0.733166 5.14667 1.37317 3.49333 2.65317 2.16C3.87983 0.879999 5.4265 0.24 7.29317 0.24C9.4265 0.24 11.1332 0.986667 12.4132 2.48C13.6932 4.02667 14.3332 6.24 14.3332 9.12C14.3332 14.72 12.3598 19.5733 8.41317 23.68C7.6665 24.4267 6.81317 24.8 5.85317 24.8C4.9465 24.8 4.1465 24.48 3.45317 23.84C2.75983 23.2533 2.41316 22.5333 2.41316 21.68C2.41316 20.9333 2.7065 20.24 3.29317 19.6C5.05317 17.7333 6.2265 15.7333 6.81317 13.6Z" fill="black"/>
</svg>
