<svg width="17" height="19" viewBox="0 0 17 19" fill="none" xmlns="http://www.w3.org/2000/svg">
<path d="M8.50844 18.216C6.86044 18.216 5.42844 17.864 4.21244 17.16C3.01244 16.456 2.08444 15.448 1.42844 14.136C0.772438 12.824 0.444438 11.288 0.444438 9.528C0.444438 7.768 0.764438 6.24 1.40444 4.944C2.06044 3.632 2.99644 2.624 4.21244 1.92C5.42844 1.216 6.86044 0.863999 8.50844 0.863999C10.1564 0.863999 11.5804 1.216 12.7804 1.92C13.9964 2.624 14.9244 3.632 15.5644 4.944C16.2204 6.24 16.5484 7.768 16.5484 9.528C16.5484 11.288 16.2204 12.824 15.5644 14.136C14.9084 15.448 13.9724 16.456 12.7564 17.16C11.5564 17.864 10.1404 18.216 8.50844 18.216ZM8.50844 15.744C10.0604 15.744 11.2684 15.208 12.1324 14.136C13.0124 13.064 13.4524 11.528 13.4524 9.528C13.4524 7.528 13.0124 6 12.1324 4.944C11.2684 3.872 10.0604 3.336 8.50844 3.336C6.94044 3.336 5.71644 3.872 4.83644 4.944C3.97244 6 3.54044 7.528 3.54044 9.528C3.54044 11.528 3.97244 13.064 4.83644 14.136C5.71644 15.208 6.94044 15.744 8.50844 15.744Z" fill="#0E4952"/>
</svg>
