<svg width="31" height="25" viewBox="0 0 31 25" fill="none" xmlns="http://www.w3.org/2000/svg">
<path d="M8.26942 11.4C10.0827 11.56 11.5494 12.2267 12.6694 13.4C13.7894 14.5733 14.3494 16.0667 14.3494 17.88C14.3494 19.8533 13.7094 21.5067 12.4294 22.84C11.2027 24.12 9.65608 24.76 7.78941 24.76C5.65608 24.76 3.94941 24.0133 2.66941 22.52C1.38941 20.9733 0.749414 18.76 0.749414 15.88C0.749414 10.28 2.72275 5.42666 6.66941 1.32C7.41608 0.57333 8.26941 0.199997 9.22941 0.199997C10.1361 0.199997 10.9361 0.519998 11.6294 1.16C12.3227 1.74666 12.6694 2.46666 12.6694 3.32C12.6694 4.06667 12.3761 4.76 11.7894 5.4C10.0294 7.26666 8.85608 9.26666 8.26942 11.4ZM24.8294 11.4C26.6427 11.56 28.1094 12.2267 29.2294 13.4C30.3494 14.5733 30.9094 16.0667 30.9094 17.88C30.9094 19.8533 30.2694 21.5067 28.9894 22.84C27.7627 24.12 26.2161 24.76 24.3494 24.76C22.2161 24.76 20.5094 24.0133 19.2294 22.52C17.9494 20.9733 17.3094 18.76 17.3094 15.88C17.3094 10.28 19.2827 5.42666 23.2294 1.32C23.9761 0.57333 24.8294 0.199997 25.7894 0.199997C26.6961 0.199997 27.4961 0.519998 28.1894 1.16C28.8827 1.74666 29.2294 2.46666 29.2294 3.32C29.2294 4.06667 28.9361 4.76 28.3494 5.4C26.5894 7.26666 25.4161 9.26666 24.8294 11.4Z" fill="black"/>
</svg>
