<svg width="90" height="101" viewBox="0 0 90 101" fill="none" xmlns="http://www.w3.org/2000/svg">
<path d="M42.9112 2.05675C42.6591 1.94419 42.5459 1.64852 42.6585 1.39636C42.771 1.1442 43.0667 1.03104 43.3188 1.1436L42.9112 2.05675ZM12 80L17.2632 77.6267L16.6869 83.3714L12 80ZM43.3188 1.1436C50.301 4.26039 58.836 8.45221 65.3666 15.2109C71.9175 21.9906 76.4356 31.3365 75.4092 44.6995L74.4122 44.6229C75.4152 31.5636 71.013 22.4937 64.6475 15.9058C58.2616 9.2969 49.8841 5.16936 42.9112 2.05675L43.3188 1.1436ZM75.4092 44.6995C74.4356 57.3762 65.8644 66.8416 54.503 72.9211C43.1418 79.0004 28.9176 81.7402 16.4454 80.9481L16.5087 79.9501C28.8105 80.7314 42.8471 78.0239 54.0312 72.0393C65.2151 66.0549 73.4738 56.8397 74.4122 44.6229L75.4092 44.6995Z" fill="#F6EEE0"/>
</svg>
