<svg width="72" height="42" viewBox="0 0 72 42" fill="none" xmlns="http://www.w3.org/2000/svg">
<path d="M1.49635 0.939684C1.46304 0.665558 1.21381 0.47034 0.939684 0.503651C0.665558 0.536963 0.47034 0.786191 0.503651 1.06032L1.49635 0.939684ZM72 38.6231L66.809 36.0958L67.2159 41.855L72 38.6231ZM0.503651 1.06032C1.29002 7.5314 7.24939 22.4844 24.7518 31.167L25.1962 30.2711C8.02854 21.7546 2.24678 7.11501 1.49635 0.939684L0.503651 1.06032ZM24.7518 31.167C39.6501 38.5577 57.3805 39.8191 67.5284 39.4399L67.4911 38.4406C57.4257 38.8167 39.8844 37.5576 25.1962 30.2711L24.7518 31.167Z" fill="#F6EEE0"/>
</svg>
