<svg width="50" height="46" viewBox="0 0 50 46" fill="none" xmlns="http://www.w3.org/2000/svg">
<path d="M48.5014 45.0378C48.5223 45.3132 48.7625 45.5195 49.0378 45.4986C49.3132 45.4777 49.5195 45.2375 49.4986 44.9622L48.5014 45.0378ZM-1.79363e-07 3.41661L5.24051 5.83951L4.71854 0.0896491L-1.79363e-07 3.41661ZM49.4986 44.9622C49.2294 41.4143 48.0713 35.5262 45.476 29.3267C42.8805 23.1266 38.8335 16.5819 32.7656 11.7611L32.1435 12.5441C38.0392 17.2281 41.9998 23.6127 44.5536 29.7129C47.1075 35.8137 48.2403 41.5969 48.5014 45.0378L49.4986 44.9622ZM32.7656 11.7611C23.0815 4.06737 11.6674 2.34987 4.47 2.50995L4.49223 3.5097C11.5401 3.35295 22.6987 5.04044 32.1435 12.5441L32.7656 11.7611Z" fill="#F6EEE0"/>
</svg>
