<svg width="48" height="85" viewBox="0 0 48 85" fill="none" xmlns="http://www.w3.org/2000/svg">
<path d="M36.1682 83.5292C36.4283 83.6221 36.5638 83.9082 36.4708 84.1682C36.3779 84.4283 36.0918 84.5638 35.8318 84.4708L36.1682 83.5292ZM48 3.00012L42.938 5.77668L43.0645 0.00456148L48 3.00012ZM35.8318 84.4708C28.6314 81.8979 19.8005 78.372 12.7714 72.1333C5.72059 65.8752 0.500016 56.9027 0.5 43.5004L1.5 43.5004C1.50002 56.5982 6.5839 65.3044 13.4353 71.3854C20.3085 77.4858 28.9775 80.9597 36.1682 83.5292L35.8318 84.4708ZM0.5 43.5004C0.499986 30.9023 5.32533 20.7232 13.1304 13.6444C20.9294 6.57125 31.6765 2.61671 43.4943 2.40171L43.5125 3.40154C31.9025 3.61277 21.398 7.49623 13.8022 14.3852C6.21248 21.2686 1.49999 31.1758 1.5 43.5004L0.5 43.5004Z" fill="#F6EEE0"/>
</svg>
